<svg width="42" height="41" viewBox="0 0 42 41" fill="none" xmlns="http://www.w3.org/2000/svg">
<path d="M21 0C15.4305 0 10.089 2.15982 6.15076 6.00431C2.21249 9.84881 0 15.0631 0 20.5C0 25.9369 2.21249 31.1512 6.15076 34.9957C10.089 38.8402 15.4305 41 21 41C26.5695 41 31.911 38.8402 35.8492 34.9957C39.7875 31.1512 42 25.9369 42 20.5C42 15.0631 39.7875 9.84881 35.8492 6.00431C31.911 2.15982 26.5695 0 21 0ZM30.1875 19.2187C30.5356 19.2187 30.8694 19.3537 31.1156 19.594C31.3617 19.8343 31.5 20.1602 31.5 20.5C31.5 20.8398 31.3617 21.1657 31.1156 21.406C30.8694 21.6463 30.5356 21.7812 30.1875 21.7812H14.9809L20.6168 27.2804C20.7388 27.3995 20.8356 27.5409 20.9016 27.6966C20.9677 27.8522 21.0017 28.019 21.0017 28.1875C21.0017 28.356 20.9677 28.5228 20.9016 28.6784C20.8356 28.8341 20.7388 28.9755 20.6168 29.0946C20.4947 29.2137 20.3498 29.3082 20.1904 29.3727C20.031 29.4372 19.8601 29.4704 19.6875 29.4704C19.5149 29.4704 19.344 29.4372 19.1846 29.3727C19.0252 29.3082 18.8803 29.2137 18.7582 29.0946L10.8833 21.4071C10.761 21.2881 10.664 21.1467 10.5979 20.9911C10.5317 20.8354 10.4977 20.6685 10.4977 20.5C10.4977 20.3315 10.5317 20.1646 10.5979 20.0089C10.664 19.8533 10.761 19.7119 10.8833 19.5929L18.7582 11.9054C19.0047 11.6648 19.339 11.5296 19.6875 11.5296C20.036 11.5296 20.3703 11.6648 20.6168 11.9054C20.8632 12.146 21.0017 12.4723 21.0017 12.8125C21.0017 13.1527 20.8632 13.479 20.6168 13.7196L14.9809 19.2187H30.1875Z" fill="#ECEAEA"/>
</svg>
