<svg width="42" height="41" viewBox="0 0 42 41" fill="none" xmlns="http://www.w3.org/2000/svg">
<path d="M21 0C26.5695 0 31.911 2.15982 35.8492 6.00431C39.7875 9.84881 42 15.0631 42 20.5C42 25.9369 39.7875 31.1512 35.8492 34.9957C31.911 38.8402 26.5695 41 21 41C15.4305 41 10.089 38.8402 6.15076 34.9957C2.21249 31.1512 -2.98023e-07 25.9369 -2.98023e-07 20.5C-2.98023e-07 15.0631 2.21249 9.84881 6.15076 6.00431C10.089 2.15982 15.4305 0 21 0ZM11.8125 19.2187C11.4644 19.2187 11.1306 19.3537 10.8844 19.594C10.6383 19.8343 10.5 20.1602 10.5 20.5C10.5 20.8398 10.6383 21.1657 10.8844 21.406C11.1306 21.6463 11.4644 21.7812 11.8125 21.7812H27.0191L21.3832 27.2804C21.2612 27.3995 21.1644 27.5409 21.0984 27.6966C21.0323 27.8522 20.9983 28.019 20.9983 28.1875C20.9983 28.356 21.0323 28.5228 21.0984 28.6784C21.1644 28.8341 21.2612 28.9755 21.3832 29.0946C21.5053 29.2137 21.6502 29.3082 21.8096 29.3727C21.969 29.4372 22.1399 29.4704 22.3125 29.4704C22.4851 29.4704 22.656 29.4372 22.8154 29.3727C22.9748 29.3082 23.1197 29.2137 23.2418 29.0946L31.1167 21.4071C31.239 21.2881 31.336 21.1467 31.4021 20.9911C31.4683 20.8354 31.5023 20.6685 31.5023 20.5C31.5023 20.3315 31.4683 20.1646 31.4021 20.0089C31.336 19.8533 31.239 19.7119 31.1167 19.5929L23.2418 11.9054C22.9953 11.6648 22.661 11.5296 22.3125 11.5296C21.964 11.5296 21.6297 11.6648 21.3832 11.9054C21.1368 12.146 20.9983 12.4723 20.9983 12.8125C20.9983 13.1527 21.1368 13.479 21.3832 13.7196L27.0191 19.2187H11.8125Z" fill="#ECEAEA"/>
</svg>
