<svg width="40" height="40" viewBox="0 0 40 40" fill="none" xmlns="http://www.w3.org/2000/svg">
<path d="M17.049 13.6018V16.3018H15.0725V19.6017H17.049V29.4116H21.1118V19.6017H23.8373C23.8373 19.6017 24.0941 18.0194 24.2176 16.288H21.1274V14.0331C21.1274 13.6939 21.5706 13.241 22.0098 13.241H24.2216V9.80371H21.2118C16.949 9.80371 17.049 13.1076 17.049 13.6018Z" fill="white"/>
<path d="M19.6078 35.2941C23.7681 35.2941 27.758 33.6415 30.6997 30.6997C33.6415 27.758 35.2941 23.7681 35.2941 19.6078C35.2941 15.4476 33.6415 11.4577 30.6997 8.51597C27.758 5.57423 23.7681 3.92157 19.6078 3.92157C15.4476 3.92157 11.4577 5.57423 8.51597 8.51597C5.57423 11.4577 3.92157 15.4476 3.92157 19.6078C3.92157 23.7681 5.57423 27.758 8.51597 30.6997C11.4577 33.6415 15.4476 35.2941 19.6078 35.2941ZM19.6078 39.2157C8.77843 39.2157 0 30.4373 0 19.6078C0 8.77843 8.77843 0 19.6078 0C30.4373 0 39.2157 8.77843 39.2157 19.6078C39.2157 30.4373 30.4373 39.2157 19.6078 39.2157Z" fill="white"/>
</svg>
