<svg width="27" height="26" viewBox="0 0 27 26" fill="none" xmlns="http://www.w3.org/2000/svg">
<path d="M19.8161 16.806C21.4501 14.6589 22.182 11.9968 21.8653 9.35236C21.5486 6.70793 20.2066 4.27617 18.108 2.54358C16.0093 0.810986 13.3087 -0.0946547 10.5464 0.00783914C7.78413 0.110333 5.16389 1.2134 3.2099 3.09636C1.25592 4.97933 0.1123 7.50331 0.00784102 10.1634C-0.0966183 12.8234 0.845787 15.4234 2.64652 17.4431C4.44724 19.4627 6.9735 20.7532 9.71986 21.0563C12.4662 21.3594 15.2302 20.6528 17.4587 19.0777H17.457C17.5076 19.1427 17.5616 19.2045 17.6224 19.2646L24.1193 25.5209C24.4357 25.8258 24.8649 25.9972 25.3126 25.9973C25.7602 25.9975 26.1896 25.8264 26.5062 25.5217C26.8229 25.217 27.0009 24.8036 27.001 24.3726C27.0012 23.9415 26.8235 23.528 26.5071 23.2231L20.0102 16.9669C19.9499 16.9081 19.885 16.8537 19.8161 16.8044V16.806ZM20.2515 10.5595C20.2515 11.7332 20.0114 12.8954 19.545 13.9797C19.0786 15.0641 18.3949 16.0493 17.5331 16.8793C16.6713 17.7092 15.6481 18.3675 14.522 18.8167C13.396 19.2658 12.1891 19.497 10.9703 19.497C9.75143 19.497 8.54454 19.2658 7.41848 18.8167C6.29243 18.3675 5.26927 17.7092 4.40743 16.8793C3.54559 16.0493 2.86193 15.0641 2.39551 13.9797C1.92908 12.8954 1.68902 11.7332 1.68902 10.5595C1.68902 8.18912 2.66686 5.91583 4.40743 4.23972C6.148 2.56362 8.50872 1.62199 10.9703 1.62199C13.4318 1.62199 15.7925 2.56362 17.5331 4.23972C19.2737 5.91583 20.2515 8.18912 20.2515 10.5595Z" fill="#777777"/>
</svg>
