<svg width="46" height="46" viewBox="0 0 46 46" fill="none" xmlns="http://www.w3.org/2000/svg">
<path d="M0 8.625V11.5H27.3125V33.0625H18.4632C17.8221 30.5914 15.5997 28.75 12.9375 28.75C10.2753 28.75 8.05288 30.5914 7.41175 33.0625H5.75V25.875H2.875V35.9375H7.41175C8.05288 38.4086 10.2753 40.25 12.9375 40.25C15.5997 40.25 17.8221 38.4086 18.4632 35.9375H30.4118C31.0529 38.4086 33.2752 40.25 35.9375 40.25C38.5998 40.25 40.8221 38.4086 41.4632 35.9375H46V24.2133L45.9094 23.9876L43.0344 15.3626L42.7225 14.375H30.1875V8.625H0ZM1.4375 14.375V17.25H14.375V14.375H1.4375ZM30.1875 17.25H40.6539L43.125 24.6172V33.0625H41.4632C40.8221 30.5914 38.5998 28.75 35.9375 28.75C33.2752 28.75 31.0529 30.5914 30.4118 33.0625H30.1875V17.25ZM2.875 20.125V23H11.5V20.125H2.875ZM12.9375 31.625C14.5432 31.625 15.8125 32.8943 15.8125 34.5C15.8125 36.1057 14.5432 37.375 12.9375 37.375C11.3318 37.375 10.0625 36.1057 10.0625 34.5C10.0625 32.8943 11.3318 31.625 12.9375 31.625ZM35.9375 31.625C37.5432 31.625 38.8125 32.8943 38.8125 34.5C38.8125 36.1057 37.5432 37.375 35.9375 37.375C34.3318 37.375 33.0625 36.1057 33.0625 34.5C33.0625 32.8943 34.3318 31.625 35.9375 31.625Z" fill="white"/>
</svg>
