<svg width="55" height="48" viewBox="0 0 55 48" fill="none" xmlns="http://www.w3.org/2000/svg">
<path d="M27.5 3L7.25 9V27C7.25 36.9422 16.315 45 27.5 45C38.685 45 47.75 36.9422 47.75 27V9L27.5 3ZM43.9531 27C43.9531 35.0766 36.5861 41.625 27.5 41.625C18.4139 41.625 11.0469 35.0766 11.0469 27V11.5312L27.5 6.375L43.9531 11.5312V27Z" fill="white"/>
<path d="M20.4547 22.2703C20.2788 22.1132 20.0696 21.9885 19.8393 21.9034C19.609 21.8184 19.362 21.7746 19.1126 21.7746C18.8632 21.7746 18.6163 21.8184 18.3859 21.9034C18.1556 21.9885 17.9465 22.1132 17.7705 22.2703C17.5938 22.4267 17.4535 22.6126 17.3578 22.8173C17.2621 23.0221 17.2128 23.2416 17.2128 23.4633C17.2128 23.685 17.2621 23.9045 17.3578 24.1092C17.4535 24.3139 17.5938 24.4998 17.7705 24.6563L24.5944 30.7219L24.7051 30.8203C24.8715 30.9685 25.0692 31.0861 25.2869 31.1664C25.5045 31.2466 25.7378 31.2879 25.9734 31.2879C26.209 31.2879 26.4423 31.2466 26.6599 31.1664C26.8775 31.0861 27.0752 30.9685 27.2416 30.8203L39.0278 20.3438C39.1945 20.1958 39.3268 20.0201 39.4171 19.8266C39.5073 19.6332 39.5538 19.4258 39.5538 19.2164C39.5538 19.007 39.5073 18.7996 39.4171 18.6062C39.3268 18.4127 39.1945 18.237 39.0278 18.0891L38.8801 17.9578C38.7137 17.8096 38.516 17.692 38.2984 17.6118C38.0807 17.5315 37.8474 17.4902 37.6118 17.4902C37.3762 17.4902 37.143 17.5315 36.9253 17.6118C36.7077 17.692 36.51 17.8096 36.3436 17.9578L25.9707 27.1734L20.4547 22.2703Z" fill="white"/>
</svg>
