<svg width="28" height="28" viewBox="0 0 28 28" fill="none" xmlns="http://www.w3.org/2000/svg">
<path d="M24.8308 9.65506L17.8882 8.64608L14.7847 2.35428C14.6999 2.18202 14.5604 2.04256 14.3882 1.9578C13.9562 1.74452 13.4311 1.92225 13.2151 2.35428L10.1116 8.64608L3.16904 9.65506C2.97763 9.68241 2.80263 9.77264 2.66865 9.90936C2.50667 10.0758 2.41741 10.2998 2.42049 10.5321C2.42356 10.7644 2.51872 10.9859 2.68505 11.148L7.7081 16.0453L6.52138 22.9605C6.49355 23.1214 6.51136 23.2868 6.57277 23.4381C6.63418 23.5894 6.73675 23.7204 6.86884 23.8163C7.00093 23.9123 7.15725 23.9693 7.32009 23.9809C7.48293 23.9925 7.64577 23.9582 7.79013 23.882L13.9999 20.6172L20.2097 23.882C20.3792 23.9723 20.5761 24.0023 20.7647 23.9695C21.2405 23.8875 21.5604 23.4363 21.4784 22.9605L20.2917 16.0453L25.3147 11.148C25.4515 11.014 25.5417 10.839 25.569 10.6476C25.6429 10.1691 25.3093 9.72616 24.8308 9.65506Z" fill="#FFE600"/>
<path d="M18.0194 8.99971L18.1357 9.23551L18.3959 9.27333L25.3369 10.2821C25.337 10.2821 25.3372 10.2821 25.3374 10.2822C25.5472 10.3136 25.6851 10.5053 25.6545 10.7038L25.6544 10.7038L25.6537 10.7094C25.6422 10.7897 25.6043 10.8644 25.5448 10.9229C25.5447 10.9231 25.5445 10.9232 25.5444 10.9234L20.5222 15.8197L20.334 16.0032L20.3785 16.2623L21.5652 23.1775L21.5653 23.1779C21.6002 23.3804 21.4643 23.5739 21.2594 23.6092L21.2587 23.6094C21.1772 23.6235 21.0934 23.61 21.0242 23.5731L21.0219 23.5719L14.8122 20.3071L14.5795 20.1847L14.3468 20.3071L8.13704 23.5719L8.13627 23.5723C8.07453 23.6049 8.00489 23.6196 7.93525 23.6146C7.86561 23.6096 7.79875 23.5852 7.74225 23.5442C7.68576 23.5032 7.64189 23.4471 7.61563 23.3825C7.58937 23.3178 7.58175 23.247 7.59366 23.1782L7.59377 23.1775L8.78049 16.2623L8.82495 16.0032L8.63673 15.8197L3.61369 10.9225L3.61366 10.9224C3.54222 10.8528 3.50135 10.7577 3.50003 10.6579C3.49872 10.5585 3.53681 10.4626 3.60596 10.3911C3.66441 10.3318 3.73912 10.2939 3.81934 10.2825L3.82054 10.2823L10.7631 9.27333L11.0233 9.23551L11.1396 8.99971L14.2419 2.71034C14.2421 2.70999 14.2423 2.70964 14.2425 2.7093C14.3365 2.52261 14.563 2.44802 14.7464 2.53859L14.747 2.53887C14.8203 2.57491 14.8796 2.63424 14.9156 2.70748L14.9158 2.70792L18.0194 8.99971Z" stroke="black"/>
<path fill-rule="evenodd" clip-rule="evenodd" d="M14.5795 2V20.7496L8.36972 24.0145C8.22536 24.0907 8.06252 24.1249 7.89968 24.1133C7.73684 24.1017 7.58052 24.0447 7.44843 23.9488C7.31634 23.8528 7.21377 23.7218 7.15236 23.5705C7.09095 23.4193 7.07314 23.2538 7.10097 23.093L8.28769 16.1777L3.26464 11.2805C3.09831 11.1183 3.00315 10.8968 3.00008 10.6645C2.997 10.4323 3.08626 10.2083 3.24824 10.0418C3.38222 9.90508 3.55722 9.81485 3.74863 9.78751L10.6912 8.77852L13.7947 2.48672C13.9483 2.1796 14.258 2.00098 14.5795 2Z" fill="#FFAC20"/>
<path fill-rule="evenodd" clip-rule="evenodd" d="M14.5795 2.13245V20.8821L20.7892 24.1469C20.9336 24.2231 21.0964 24.2574 21.2593 24.2458C21.4221 24.2342 21.5784 24.1772 21.7105 24.0812C21.8426 23.9853 21.9452 23.8543 22.0066 23.703C22.068 23.5517 22.0858 23.3863 22.058 23.2254L20.8712 16.3102L25.8943 11.4129C26.0606 11.2508 26.1558 11.0292 26.1589 10.797C26.1619 10.5647 26.0727 10.3407 25.9107 10.1742C25.7767 10.0375 25.6017 9.9473 25.4103 9.91995L18.4677 8.91097L15.3642 2.61917C15.2106 2.31204 14.9009 2.13343 14.5795 2.13245Z" fill="#030300"/>
</svg>
