<svg width="24" height="23" viewBox="0 0 24 23" fill="none" xmlns="http://www.w3.org/2000/svg">
<path d="M22.8308 8.65506L15.8882 7.64608L12.7847 1.35428C12.6999 1.18202 12.5604 1.04256 12.3882 0.957798C11.9562 0.744517 11.4311 0.922251 11.2151 1.35428L8.11162 7.64608L1.16904 8.65506C0.977633 8.68241 0.802633 8.77264 0.668649 8.90936C0.506669 9.07585 0.417411 9.29983 0.420487 9.53209C0.423563 9.76436 0.518723 9.9859 0.685055 10.148L5.7081 15.0453L4.52138 21.9605C4.49355 22.1214 4.51136 22.2868 4.57277 22.4381C4.63418 22.5894 4.73675 22.7204 4.86884 22.8163C5.00093 22.9123 5.15725 22.9693 5.32009 22.9809C5.48293 22.9925 5.64577 22.9582 5.79013 22.882L11.9999 19.6172L18.2097 22.882C18.3792 22.9723 18.5761 23.0023 18.7647 22.9695C19.2405 22.8875 19.5604 22.4363 19.4784 21.9605L18.2917 15.0453L23.3147 10.148C23.4515 10.014 23.5417 9.83905 23.569 9.64764C23.6429 9.16913 23.3093 8.72616 22.8308 8.65506Z" fill="#FFAC20"/>
</svg>
