<svg width="63" height="60" viewBox="0 0 63 60" fill="none" xmlns="http://www.w3.org/2000/svg">
<g filter="url(#filter0_d_288_2126)">
<ellipse cx="31.5" cy="26" rx="27.5" ry="26" fill="#DDD2BC"/>
</g>
<path d="M31 10.8333C29.599 10.8333 28.2296 11.2487 27.0647 12.027C25.8999 12.8053 24.992 13.9116 24.4559 15.2059C23.9197 16.5002 23.7795 17.9244 24.0528 19.2985C24.3261 20.6725 25.0007 21.9346 25.9913 22.9253C26.9819 23.9159 28.2441 24.5905 29.6181 24.8638C30.9921 25.1371 32.4164 24.9969 33.7107 24.4607C35.005 23.9246 36.1112 23.0167 36.8896 21.8519C37.6679 20.687 38.0833 19.3175 38.0833 17.9166C38.0833 16.038 37.3371 14.2363 36.0087 12.9079C34.6803 11.5795 32.8786 10.8333 31 10.8333ZM31 22.1666C30.1594 22.1666 29.3377 21.9173 28.6388 21.4503C27.9399 20.9833 27.3952 20.3196 27.0735 19.543C26.7518 18.7664 26.6677 17.9119 26.8317 17.0875C26.9956 16.263 27.4004 15.5058 27.9948 14.9114C28.5892 14.317 29.3464 13.9122 30.1709 13.7482C30.9953 13.5843 31.8498 13.6684 32.6264 13.9901C33.403 14.3118 34.0667 14.8565 34.5337 15.5554C35.0007 16.2543 35.25 17.076 35.25 17.9166C35.25 19.0438 34.8022 20.1248 34.0052 20.9218C33.2082 21.7188 32.1272 22.1666 31 22.1666ZM43.75 37.7499V36.3333C43.75 33.7032 42.7052 31.1808 40.8455 29.3211C38.9857 27.4614 36.4634 26.4166 33.8333 26.4166H28.1667C25.5366 26.4166 23.0143 27.4614 21.1545 29.3211C19.2948 31.1808 18.25 33.7032 18.25 36.3333V37.7499H21.0833V36.3333C21.0833 34.4546 21.8296 32.653 23.158 31.3246C24.4864 29.9962 26.288 29.2499 28.1667 29.2499H33.8333C35.712 29.2499 37.5136 29.9962 38.842 31.3246C40.1704 32.653 40.9167 34.4546 40.9167 36.3333V37.7499H43.75Z" fill="#404040"/>
<defs>
<filter id="filter0_d_288_2126" x="0" y="0" width="63" height="60" filterUnits="userSpaceOnUse" color-interpolation-filters="sRGB">
<feFlood flood-opacity="0" result="BackgroundImageFix"/>
<feColorMatrix in="SourceAlpha" type="matrix" values="0 0 0 0 0 0 0 0 0 0 0 0 0 0 0 0 0 0 127 0" result="hardAlpha"/>
<feOffset dy="4"/>
<feGaussianBlur stdDeviation="2"/>
<feComposite in2="hardAlpha" operator="out"/>
<feColorMatrix type="matrix" values="0 0 0 0 0 0 0 0 0 0 0 0 0 0 0 0 0 0 0.25 0"/>
<feBlend mode="normal" in2="BackgroundImageFix" result="effect1_dropShadow_288_2126"/>
<feBlend mode="normal" in="SourceGraphic" in2="effect1_dropShadow_288_2126" result="shape"/>
</filter>
</defs>
</svg>
