<svg width="61" height="59" viewBox="0 0 61 59" fill="none" xmlns="http://www.w3.org/2000/svg">
<g filter="url(#filter0_d_288_2139)">
<ellipse cx="30.5" cy="25.5" rx="26.5" ry="25.5" fill="#DDD2BC"/>
</g>
<path d="M23.625 15.875C19.8286 15.875 16.75 18.7373 16.75 22.2688C16.75 25.1195 17.9531 31.8852 29.796 38.7246C30.0081 38.8458 30.2517 38.91 30.5 38.91C30.7483 38.91 30.9919 38.8458 31.204 38.7246C43.0469 31.8852 44.25 25.1195 44.25 22.2688C44.25 18.7373 41.1714 15.875 37.375 15.875C33.5786 15.875 30.5 19.75 30.5 19.75C30.5 19.75 27.4214 15.875 23.625 15.875Z" stroke="#404040" stroke-width="3" stroke-linecap="round" stroke-linejoin="round"/>
<defs>
<filter id="filter0_d_288_2139" x="0" y="0" width="61" height="59" filterUnits="userSpaceOnUse" color-interpolation-filters="sRGB">
<feFlood flood-opacity="0" result="BackgroundImageFix"/>
<feColorMatrix in="SourceAlpha" type="matrix" values="0 0 0 0 0 0 0 0 0 0 0 0 0 0 0 0 0 0 127 0" result="hardAlpha"/>
<feOffset dy="4"/>
<feGaussianBlur stdDeviation="2"/>
<feComposite in2="hardAlpha" operator="out"/>
<feColorMatrix type="matrix" values="0 0 0 0 0 0 0 0 0 0 0 0 0 0 0 0 0 0 0.25 0"/>
<feBlend mode="normal" in2="BackgroundImageFix" result="effect1_dropShadow_288_2139"/>
<feBlend mode="normal" in="SourceGraphic" in2="effect1_dropShadow_288_2139" result="shape"/>
</filter>
</defs>
</svg>
